<?xml version="1.0" encoding="UTF-8"?>
<svg id="Warstwa_2" data-name="Warstwa 2" xmlns="http://www.w3.org/2000/svg" viewBox="0 0 19.85 30">
  <defs>
    <style>
      .cls-1 {
        fill: #fff;
      }

      .cls-2 {
        stroke: #fff;
        stroke-miterlimit: 10;
      }

      .cls-2, .cls-3 {
        fill: none;
      }
    </style>
  </defs>
  <g id="Warstwa_1-2" data-name="Warstwa 1">
    <g>
      <path class="cls-3" d="M18.37,3.03c0-.86-.7-1.55-1.55-1.55H3.03c-.86,0-1.55.7-1.55,1.55v19.51h16.89V3.03Z"/>
      <path class="cls-1" d="M16.82,0H3.03C1.36,0,0,1.36,0,3.03v23.93c0,1.67,1.36,3.03,3.03,3.03h13.78c1.67,0,3.03-1.36,3.03-3.03V3.03c0-1.67-1.36-3.03-3.03-3.03ZM19.11,22.54v6.23h-.89c-.39.3-.87.49-1.4.49H3.03c-.53,0-1.01-.19-1.4-.49h-.89V3.03C.74,1.77,1.77.74,3.03.74h13.78c1.27,0,2.29,1.03,2.29,2.29v19.51Z"/>
      <path class="cls-1" d="M16.82.74H3.03C1.77.74.74,1.77.74,3.03v19.51h.74V3.03c0-.86.7-1.55,1.55-1.55h13.78c.86,0,1.55.7,1.55,1.55v19.51h.74V3.03c0-1.27-1.03-2.29-2.29-2.29Z"/>
      <path class="cls-1" d="M3.03,29.26h13.78c.53,0,1.01-.19,1.4-.49H1.63c.39.3.87.49,1.4.49Z"/>
      <path class="cls-1" d="M3.03,28.52h13.78c.86,0,1.55-.7,1.55-1.55v-4.43H1.48v4.43c0,.86.7,1.55,1.55,1.55Z"/>
      <path class="cls-1" d="M.74,26.97v1.8h.89c-.54-.42-.89-1.07-.89-1.8Z"/>
      <path class="cls-1" d="M18.22,28.77h.89v-1.8c0,.74-.35,1.38-.89,1.8Z"/>
      <path class="cls-1" d="M18.37,26.97c0,.86-.7,1.55-1.55,1.55H3.03c-.86,0-1.55-.7-1.55-1.55v-4.43h-.74v4.43c0,.74.35,1.38.89,1.8h16.58c.54-.42.89-1.07.89-1.8v-4.43h-.74v4.43Z"/>
    </g>
    <rect class="cls-2" x="3.62" y="5.56" width="12.62" height="4.36" rx="1.23" ry="1.23"/>
  </g>
</svg>