<?xml version="1.0" encoding="UTF-8"?>
<svg id="Warstwa_2" data-name="Warstwa 2" xmlns="http://www.w3.org/2000/svg" viewBox="0 0 29.03 28">
  <defs>
    <style>
      .cls-1, .cls-2 {
        fill: #fff;
      }

      .cls-3 {
        fill: none;
        stroke-miterlimit: 10;
      }

      .cls-3, .cls-2 {
        stroke: #fff;
        stroke-linecap: round;
      }

      .cls-2 {
        stroke-linejoin: round;
      }
    </style>
  </defs>
  <g id="Warstwa_1-2" data-name="Warstwa 1">
    <path class="cls-2" d="M13.69,14V.5c-.03.41-2.15,5.17-4.3,7.1C4.12,12.32.5,12.22.5,12.22v1.78"/>
    <path class="cls-1" d="M13.69,9.96c2,0,3.62,1.81,3.62,4.04s-1.62,4.04-3.62,4.04"/>
    <path class="cls-2" d="M13.69,14v13.5c-.03-.41-2.15-5.17-4.3-7.1C4.12,15.68.5,15.78.5,15.78v-1.78"/>
    <path class="cls-3" d="M19.18,3.55c5.16,0,9.35,4.68,9.35,10.45s-4.19,10.45-9.35,10.45"/>
    <path class="cls-3" d="M18.65,8.21c2.86,0,5.18,2.59,5.18,5.79s-2.32,5.79-5.18,5.79"/>
  </g>
</svg>